<svg width="78" height="78" viewBox="0 0 78 78" fill="none" xmlns="http://www.w3.org/2000/svg">
<path opacity="0.2" d="M68.25 39C68.25 44.7851 66.5345 50.4403 63.3205 55.2504C60.1065 60.0606 55.5382 63.8096 50.1935 66.0235C44.8488 68.2373 38.9676 68.8166 33.2936 67.688C27.6197 66.5593 22.4078 63.7736 18.3171 59.6829C14.2265 55.5922 11.4407 50.3803 10.312 44.7064C9.18343 39.0324 9.76267 33.1512 11.9765 27.8065C14.1904 22.4618 17.9394 17.8935 22.7496 14.6795C27.5597 11.4655 33.2149 9.75 39 9.75C46.7576 9.75 54.1974 12.8317 59.6829 18.3171C65.1683 23.8026 68.25 31.2424 68.25 39Z" fill="#E65252"/>
<path d="M39 7.3125C32.7328 7.3125 26.6064 9.17094 21.3954 12.6528C16.1844 16.1347 12.1229 21.0836 9.72458 26.8737C7.32623 32.6639 6.69871 39.0352 7.92138 45.1819C9.14405 51.3287 12.162 56.9749 16.5936 61.4064C21.0251 65.838 26.6713 68.856 32.8181 70.0786C38.9649 71.3013 45.3362 70.6738 51.1263 68.2754C56.9164 65.8771 61.8653 61.8156 65.3472 56.6046C68.8291 51.3936 70.6875 45.2672 70.6875 39C70.6786 30.5987 67.3373 22.544 61.3967 16.6034C55.456 10.6627 47.4013 7.32137 39 7.3125ZM39 65.8125C33.697 65.8125 28.5131 64.24 24.1038 61.2938C19.6945 58.3476 16.2579 54.16 14.2285 49.2607C12.1991 44.3614 11.6681 38.9703 12.7027 33.7691C13.7373 28.568 16.2909 23.7905 20.0407 20.0407C23.7905 16.2909 28.568 13.7373 33.7692 12.7027C38.9703 11.6681 44.3614 12.1991 49.2607 14.2285C54.1601 16.2579 58.3476 19.6945 61.2938 24.1038C64.24 28.5131 65.8125 33.697 65.8125 39C65.8044 46.1086 62.977 52.9238 57.9504 57.9504C52.9238 62.977 46.1087 65.8044 39 65.8125ZM36.5625 41.4375V24.375C36.5625 23.7285 36.8193 23.1085 37.2764 22.6514C37.7336 22.1943 38.3535 21.9375 39 21.9375C39.6465 21.9375 40.2665 22.1943 40.7236 22.6514C41.1807 23.1085 41.4375 23.7285 41.4375 24.375V41.4375C41.4375 42.084 41.1807 42.704 40.7236 43.1611C40.2665 43.6182 39.6465 43.875 39 43.875C38.3535 43.875 37.7336 43.6182 37.2764 43.1611C36.8193 42.704 36.5625 42.084 36.5625 41.4375ZM42.6563 52.4062C42.6563 53.1294 42.4418 53.8363 42.0401 54.4376C41.6383 55.0388 41.0673 55.5074 40.3992 55.7842C39.7311 56.0609 38.996 56.1333 38.2867 55.9922C37.5775 55.8512 36.926 55.5029 36.4147 54.9916C35.9033 54.4803 35.5551 53.8288 35.414 53.1195C35.2729 52.4103 35.3453 51.6752 35.6221 51.0071C35.8988 50.339 36.3674 49.7679 36.9687 49.3662C37.57 48.9644 38.2769 48.75 39 48.75C39.9697 48.75 40.8997 49.1352 41.5854 49.8209C42.2711 50.5066 42.6563 51.4366 42.6563 52.4062Z" fill="#E65252"/>
</svg>
